<svg width="4" height="16" viewBox="0 0 4 16" fill="none" xmlns="http://www.w3.org/2000/svg">
<path d="M2.0254 4.47637C3.08029 4.47637 3.94338 3.6729 3.94338 2.69088C3.94338 1.70887 3.08029 0.905396 2.0254 0.905396C0.970513 0.905396 0.107422 1.70887 0.107422 2.69088C0.107422 3.6729 0.970513 4.47637 2.0254 4.47637ZM2.0254 6.26186C0.970513 6.26186 0.107422 7.06533 0.107422 8.04735C0.107422 9.02937 0.970513 9.83284 2.0254 9.83284C3.08029 9.83284 3.94338 9.02937 3.94338 8.04735C3.94338 7.06533 3.08029 6.26186 2.0254 6.26186ZM2.0254 11.6183C0.970513 11.6183 0.107422 12.4218 0.107422 13.4038C0.107422 14.3858 0.970513 15.1893 2.0254 15.1893C3.08029 15.1893 3.94338 14.3858 3.94338 13.4038C3.94338 12.4218 3.08029 11.6183 2.0254 11.6183Z" fill="#136162"/>
</svg>
