<svg width="282" height="36" viewBox="0 0 282 36" fill="none" xmlns="http://www.w3.org/2000/svg">
<rect width="30" height="36" rx="12" fill="#136162"/>
<path d="M36.324 28V8.316H40.72L40.58 24.024L48.112 23.968V28H36.324ZM50.6834 28V8.316H62.4994V12.068L55.0794 11.984L54.9394 16.184H61.7994V19.852H54.9394L55.0794 24.304L62.4994 24.248V28H50.6834ZM63.7232 28L69.1273 8.316H74.8393L80.2433 28H75.7073L74.6433 23.632H69.3233L68.2593 28H63.7232ZM70.1353 19.936H73.8313L72.0673 12.404H71.8993L70.1353 19.936ZM82.656 28V8.316H88.284L94.332 22.708H94.5L94.108 8.316H98.112V28H92.484L86.436 13.58H86.268L86.66 28H82.656ZM102.949 28L103.061 18.928L102.949 8.316H107.373L107.289 17.08L107.373 28H102.949ZM112.277 28V8.316H117.905L123.953 22.708H124.121L123.729 8.316H127.733V28H122.105L116.057 13.58H115.889L116.281 28H112.277ZM140.018 28.364C138.898 28.364 137.834 28.224 136.826 27.944C135.818 27.664 134.922 27.16 134.138 26.432C133.373 25.704 132.766 24.668 132.318 23.324C131.87 21.98 131.646 20.2347 131.646 18.088C131.646 15.9787 131.851 14.2613 132.262 12.936C132.691 11.6107 133.298 10.584 134.082 9.856C134.866 9.128 135.799 8.63333 136.882 8.372C137.983 8.092 139.197 7.952 140.522 7.952C141.157 7.952 141.847 7.98933 142.594 8.064C143.359 8.13867 144.097 8.232 144.806 8.344C145.515 8.456 146.094 8.568 146.542 8.68L146.038 12.236C145.291 12.1427 144.405 12.0493 143.378 11.956C142.351 11.8627 141.343 11.816 140.354 11.816C139.495 11.816 138.833 11.8627 138.366 11.956C137.918 12.0307 137.591 12.1613 137.386 12.348C137.087 12.6093 136.817 13.188 136.574 14.084C136.331 14.9613 136.21 16.3053 136.21 18.116C136.21 19.4973 136.285 20.5893 136.434 21.392C136.583 22.176 136.751 22.7547 136.938 23.128C137.143 23.5013 137.311 23.7627 137.442 23.912C137.61 24.0613 137.909 24.2107 138.338 24.36C138.767 24.5093 139.402 24.584 140.242 24.584C141.082 24.584 141.763 24.528 142.286 24.416V20.3L139.43 20.104V16.94H146.57V27.076C146.57 27.076 146.271 27.188 145.674 27.412C145.095 27.6173 144.311 27.8227 143.322 28.028C142.333 28.252 141.231 28.364 140.018 28.364Z" fill="#136162"/>
<path d="M163.987 28.364C163.091 28.364 162.232 28.2707 161.411 28.084C160.59 27.916 159.852 27.72 159.199 27.496C158.564 27.272 158.06 27.076 157.687 26.908C157.314 26.7213 157.127 26.628 157.127 26.628C157.127 26.628 157.183 26.46 157.295 26.124C157.407 25.7693 157.528 25.368 157.659 24.92C157.808 24.4533 157.939 24.052 158.051 23.716C158.163 23.38 158.219 23.212 158.219 23.212C158.219 23.212 158.406 23.2867 158.779 23.436C159.171 23.5667 159.675 23.7253 160.291 23.912C160.926 24.08 161.607 24.2387 162.335 24.388C163.082 24.5187 163.819 24.584 164.547 24.584C164.902 24.584 165.182 24.556 165.387 24.5C165.592 24.4253 165.751 24.3507 165.863 24.276C166.068 24.1453 166.227 23.94 166.339 23.66C166.47 23.38 166.535 22.9787 166.535 22.456C166.535 21.9893 166.348 21.5973 165.975 21.28C165.602 20.944 165.116 20.636 164.519 20.356C163.922 20.076 163.278 19.7773 162.587 19.46C161.99 19.18 161.392 18.8907 160.795 18.592C160.198 18.2747 159.656 17.9013 159.171 17.472C158.686 17.0427 158.294 16.5107 157.995 15.876C157.696 15.2227 157.547 14.42 157.547 13.468C157.547 12.4413 157.799 11.5173 158.303 10.696C158.826 9.856 159.6 9.19333 160.627 8.708C161.672 8.204 162.96 7.952 164.491 7.952C165.163 7.952 165.835 7.99867 166.507 8.092C167.198 8.18533 167.832 8.29733 168.411 8.428C168.99 8.54 169.447 8.64267 169.783 8.736C170.138 8.82933 170.315 8.876 170.315 8.876L169.615 12.376C169.615 12.376 169.428 12.348 169.055 12.292C168.7 12.2173 168.234 12.1427 167.655 12.068C167.076 11.9747 166.46 11.9 165.807 11.844C165.154 11.7693 164.538 11.732 163.959 11.732C163.604 11.732 163.324 11.76 163.119 11.816C162.914 11.872 162.736 11.9467 162.587 12.04C162.456 12.1333 162.326 12.2827 162.195 12.488C162.083 12.6747 162.027 13.0013 162.027 13.468C162.027 14.0093 162.307 14.4667 162.867 14.84C163.446 15.2133 164.136 15.5867 164.939 15.96C165.574 16.2587 166.236 16.5667 166.927 16.884C167.636 17.2013 168.299 17.584 168.915 18.032C169.531 18.48 170.035 19.0493 170.427 19.74C170.819 20.412 171.015 21.2613 171.015 22.288C171.015 23.5013 170.716 24.5653 170.119 25.48C169.54 26.3947 168.719 27.104 167.655 27.608C166.61 28.112 165.387 28.364 163.987 28.364ZM174.746 28V8.316H186.562V12.068L179.142 11.984L179.002 16.184H185.862V19.852H179.002L179.142 24.304L186.562 24.248V28H174.746ZM190.418 28L190.53 18.872L190.418 8.344C190.53 8.344 190.856 8.32533 191.398 8.288C191.939 8.232 192.592 8.18533 193.358 8.148C194.123 8.092 194.907 8.04533 195.71 8.008C196.512 7.97067 197.231 7.952 197.866 7.952C199.378 7.952 200.684 8.16667 201.786 8.596C202.906 9.02533 203.764 9.716 204.362 10.668C204.959 11.62 205.258 12.8987 205.258 14.504C205.258 16.0533 204.922 17.3133 204.25 18.284C203.578 19.2547 202.588 19.9547 201.282 20.384V20.552L205.566 28H200.694L197.25 21L194.814 20.944V28H190.418ZM197.95 17.5C199.088 17.5 199.826 17.2573 200.162 16.772C200.516 16.2867 200.694 15.54 200.694 14.532C200.694 13.6173 200.628 12.964 200.498 12.572C200.367 12.18 200.199 11.9187 199.994 11.788C199.658 11.564 198.986 11.452 197.978 11.452C197.231 11.452 196.624 11.4707 196.158 11.508C195.691 11.5267 195.243 11.564 194.814 11.62V17.304C195.355 17.36 195.896 17.4067 196.438 17.444C196.979 17.4813 197.483 17.5 197.95 17.5ZM212.372 28L206.996 8.316H211.672L215.116 23.996H215.284L218.756 8.316H223.432L218.056 28H212.372ZM226.164 28L226.276 18.928L226.164 8.316H230.588L230.504 17.08L230.588 28H226.164ZM242.66 28.364C241.092 28.364 239.701 28.0373 238.488 27.384C237.275 26.712 236.313 25.648 235.604 24.192C234.913 22.7173 234.568 20.7667 234.568 18.34C234.568 16.1933 234.773 14.4387 235.184 13.076C235.613 11.7133 236.211 10.668 236.976 9.94C237.741 9.19333 238.637 8.68 239.664 8.4C240.691 8.10133 241.801 7.952 242.996 7.952C243.481 7.952 244.079 7.98933 244.788 8.064C245.497 8.12 246.207 8.204 246.916 8.316C247.644 8.40933 248.241 8.52133 248.708 8.652L248.232 12.236C248.008 12.1987 247.663 12.1613 247.196 12.124C246.729 12.0867 246.225 12.04 245.684 11.984C245.143 11.928 244.639 11.8907 244.172 11.872C243.724 11.8347 243.388 11.816 243.164 11.816C242.399 11.816 241.792 11.8627 241.344 11.956C240.915 12.0307 240.597 12.152 240.392 12.32C240.149 12.5067 239.935 12.8333 239.748 13.3C239.561 13.748 239.412 14.3827 239.3 15.204C239.188 16.0253 239.132 17.0987 239.132 18.424C239.132 20.0667 239.281 21.364 239.58 22.316C239.879 23.2493 240.187 23.8373 240.504 24.08C240.709 24.2293 240.971 24.3507 241.288 24.444C241.605 24.5373 242.007 24.584 242.492 24.584C243.089 24.584 243.715 24.5093 244.368 24.36C245.04 24.2107 245.665 24.0427 246.244 23.856C246.823 23.6507 247.299 23.4733 247.672 23.324C248.045 23.1747 248.232 23.1 248.232 23.1L249.492 26.432C249.492 26.432 249.324 26.5347 248.988 26.74C248.652 26.9267 248.176 27.1507 247.56 27.412C246.944 27.6547 246.216 27.8693 245.376 28.056C244.555 28.2613 243.649 28.364 242.66 28.364ZM253.051 28V8.316H264.867V12.068L257.447 11.984L257.307 16.184H264.167V19.852H257.307L257.447 24.304L264.867 24.248V28H253.051ZM274.182 28.364C273.286 28.364 272.428 28.2707 271.606 28.084C270.785 27.916 270.048 27.72 269.394 27.496C268.76 27.272 268.256 27.076 267.882 26.908C267.509 26.7213 267.322 26.628 267.322 26.628C267.322 26.628 267.378 26.46 267.49 26.124C267.602 25.7693 267.724 25.368 267.854 24.92C268.004 24.4533 268.134 24.052 268.246 23.716C268.358 23.38 268.414 23.212 268.414 23.212C268.414 23.212 268.601 23.2867 268.974 23.436C269.366 23.5667 269.87 23.7253 270.486 23.912C271.121 24.08 271.802 24.2387 272.53 24.388C273.277 24.5187 274.014 24.584 274.742 24.584C275.097 24.584 275.377 24.556 275.582 24.5C275.788 24.4253 275.946 24.3507 276.058 24.276C276.264 24.1453 276.422 23.94 276.534 23.66C276.665 23.38 276.73 22.9787 276.73 22.456C276.73 21.9893 276.544 21.5973 276.17 21.28C275.797 20.944 275.312 20.636 274.714 20.356C274.117 20.076 273.473 19.7773 272.782 19.46C272.185 19.18 271.588 18.8907 270.99 18.592C270.393 18.2747 269.852 17.9013 269.366 17.472C268.881 17.0427 268.489 16.5107 268.19 15.876C267.892 15.2227 267.742 14.42 267.742 13.468C267.742 12.4413 267.994 11.5173 268.498 10.696C269.021 9.856 269.796 9.19333 270.822 8.708C271.868 8.204 273.156 7.952 274.686 7.952C275.358 7.952 276.03 7.99867 276.702 8.092C277.393 8.18533 278.028 8.29733 278.606 8.428C279.185 8.54 279.642 8.64267 279.978 8.736C280.333 8.82933 280.51 8.876 280.51 8.876L279.81 12.376C279.81 12.376 279.624 12.348 279.25 12.292C278.896 12.2173 278.429 12.1427 277.85 12.068C277.272 11.9747 276.656 11.9 276.002 11.844C275.349 11.7693 274.733 11.732 274.154 11.732C273.8 11.732 273.52 11.76 273.314 11.816C273.109 11.872 272.932 11.9467 272.782 12.04C272.652 12.1333 272.521 12.2827 272.39 12.488C272.278 12.6747 272.222 13.0013 272.222 13.468C272.222 14.0093 272.502 14.4667 273.062 14.84C273.641 15.2133 274.332 15.5867 275.134 15.96C275.769 16.2587 276.432 16.5667 277.122 16.884C277.832 17.2013 278.494 17.584 279.11 18.032C279.726 18.48 280.23 19.0493 280.622 19.74C281.014 20.412 281.21 21.2613 281.21 22.288C281.21 23.5013 280.912 24.5653 280.314 25.48C279.736 26.3947 278.914 27.104 277.85 27.608C276.805 28.112 275.582 28.364 274.182 28.364Z" fill="#6CB2B2"/>
<path d="M15.492 28.364C13.924 28.364 12.5333 28.0373 11.32 27.384C10.1067 26.712 9.14533 25.648 8.436 24.192C7.74533 22.7173 7.4 20.7667 7.4 18.34C7.4 16.1933 7.60533 14.4387 8.016 13.076C8.44533 11.7133 9.04267 10.668 9.808 9.94C10.5733 9.19333 11.4693 8.68 12.496 8.4C13.5227 8.10133 14.6333 7.952 15.828 7.952C16.3133 7.952 16.9107 7.98933 17.62 8.064C18.3293 8.12 19.0387 8.204 19.748 8.316C20.476 8.40933 21.0733 8.52133 21.54 8.652L21.064 12.236C20.84 12.1987 20.4947 12.1613 20.028 12.124C19.5613 12.0867 19.0573 12.04 18.516 11.984C17.9747 11.928 17.4707 11.8907 17.004 11.872C16.556 11.8347 16.22 11.816 15.996 11.816C15.2307 11.816 14.624 11.8627 14.176 11.956C13.7467 12.0307 13.4293 12.152 13.224 12.32C12.9813 12.5067 12.7667 12.8333 12.58 13.3C12.3933 13.748 12.244 14.3827 12.132 15.204C12.02 16.0253 11.964 17.0987 11.964 18.424C11.964 20.0667 12.1133 21.364 12.412 22.316C12.7107 23.2493 13.0187 23.8373 13.336 24.08C13.5413 24.2293 13.8027 24.3507 14.12 24.444C14.4373 24.5373 14.8387 24.584 15.324 24.584C15.9213 24.584 16.5467 24.5093 17.2 24.36C17.872 24.2107 18.4973 24.0427 19.076 23.856C19.6547 23.6507 20.1307 23.4733 20.504 23.324C20.8773 23.1747 21.064 23.1 21.064 23.1L22.324 26.432C22.324 26.432 22.156 26.5347 21.82 26.74C21.484 26.9267 21.008 27.1507 20.392 27.412C19.776 27.6547 19.048 27.8693 18.208 28.056C17.3867 28.2613 16.4813 28.364 15.492 28.364Z" fill="white"/>
</svg>
