<svg width="321" height="230" viewBox="0 0 321 230" fill="none" xmlns="http://www.w3.org/2000/svg">
<g clip-path="url(#clip0)">
<path d="M0.5 229.846H51.9729" stroke="#3F3D56" stroke-miterlimit="10"/>
<path d="M298.361 39.6133H81.8637C78.5418 39.6133 75.8489 42.3062 75.8489 45.6281V188.327C75.8489 191.649 78.5418 194.342 81.8637 194.342H298.361C301.683 194.342 304.376 191.649 304.376 188.327V45.6281C304.376 42.3062 301.683 39.6133 298.361 39.6133Z" fill="#F2F2F2"/>
<path d="M291.384 29.8459H74.8868C71.565 29.8459 68.8721 32.5389 68.8721 35.8607V178.56C68.8721 181.882 71.565 184.575 74.8868 184.575H291.384C294.706 184.575 297.399 181.882 297.399 178.56V35.8607C297.399 32.5389 294.706 29.8459 291.384 29.8459Z" stroke="#3F3D56" stroke-miterlimit="10"/>
<path d="M68.8721 44.6799H297.399" stroke="#3F3D56" stroke-miterlimit="10"/>
<path opacity="0.3" d="M265.588 79.4585H207.66C206.446 79.4585 205.461 80.4431 205.461 81.6577V86.8717C205.461 88.0863 206.446 89.0709 207.66 89.0709H265.588C266.802 89.0709 267.787 88.0863 267.787 86.8717V81.6577C267.787 80.4431 266.802 79.4585 265.588 79.4585Z" fill="#136162"/>
<path opacity="0.3" d="M277.526 106.125H195.722C194.508 106.125 193.523 107.11 193.523 108.324V111.678C193.523 112.892 194.508 113.877 195.722 113.877H277.526C278.74 113.877 279.725 112.892 279.725 111.678V108.324C279.725 107.11 278.74 106.125 277.526 106.125Z" fill="#136162"/>
<path opacity="0.3" d="M277.526 127.21H195.722C194.508 127.21 193.523 128.195 193.523 129.41V132.763C193.523 133.978 194.508 134.962 195.722 134.962H277.526C278.74 134.962 279.725 133.978 279.725 132.763V129.41C279.725 128.195 278.74 127.21 277.526 127.21Z" fill="#136162"/>
<path opacity="0.3" d="M277.526 148.295H195.722C194.508 148.295 193.523 149.28 193.523 150.495V153.848C193.523 155.063 194.508 156.047 195.722 156.047H277.526C278.74 156.047 279.725 155.063 279.725 153.848V150.495C279.725 149.28 278.74 148.295 277.526 148.295Z" fill="#136162"/>
<path d="M268.688 76.3574H210.761C209.547 76.3574 208.562 77.3421 208.562 78.5567V83.7706C208.562 84.9852 209.547 85.9698 210.761 85.9698H268.688C269.903 85.9698 270.888 84.9852 270.888 83.7706V78.5567C270.888 77.3421 269.903 76.3574 268.688 76.3574Z" stroke="#3F3D56" stroke-miterlimit="10"/>
<path d="M280.626 103.024H198.823C197.609 103.024 196.624 104.009 196.624 105.224V108.577C196.624 109.792 197.609 110.776 198.823 110.776H280.626C281.841 110.776 282.826 109.792 282.826 108.577V105.224C282.826 104.009 281.841 103.024 280.626 103.024Z" stroke="#3F3D56" stroke-miterlimit="10"/>
<path d="M280.626 124.109H198.823C197.609 124.109 196.624 125.094 196.624 126.309V129.662C196.624 130.877 197.609 131.861 198.823 131.861H280.626C281.841 131.861 282.826 130.877 282.826 129.662V126.309C282.826 125.094 281.841 124.109 280.626 124.109Z" stroke="#3F3D56" stroke-miterlimit="10"/>
<path d="M280.626 145.195H198.823C197.609 145.195 196.624 146.179 196.624 147.394V150.748C196.624 151.962 197.609 152.947 198.823 152.947H280.626C281.841 152.947 282.826 151.962 282.826 150.748V147.394C282.826 146.179 281.841 145.195 280.626 145.195Z" stroke="#3F3D56" stroke-miterlimit="10"/>
<path opacity="0.3" d="M86.2365 43.7994C88.8052 43.7994 90.8876 41.717 90.8876 39.1482C90.8876 36.5795 88.8052 34.4971 86.2365 34.4971C83.6677 34.4971 81.5853 36.5795 81.5853 39.1482C81.5853 41.717 83.6677 43.7994 86.2365 43.7994Z" fill="#136162"/>
<path opacity="0.3" d="M99.2597 43.7994C101.828 43.7994 103.911 41.717 103.911 39.1482C103.911 36.5795 101.828 34.4971 99.2597 34.4971C96.6909 34.4971 94.6085 36.5795 94.6085 39.1482C94.6085 41.717 96.6909 43.7994 99.2597 43.7994Z" fill="#136162"/>
<path opacity="0.3" d="M112.283 43.7994C114.852 43.7994 116.934 41.717 116.934 39.1482C116.934 36.5795 114.852 34.4971 112.283 34.4971C109.714 34.4971 107.632 36.5795 107.632 39.1482C107.632 41.717 109.714 43.7994 112.283 43.7994Z" fill="#136162"/>
<path d="M88.097 41.9388C90.6657 41.9388 92.7481 39.8564 92.7481 37.2876C92.7481 34.7189 90.6657 32.6365 88.097 32.6365C85.5282 32.6365 83.4458 34.7189 83.4458 37.2876C83.4458 39.8564 85.5282 41.9388 88.097 41.9388Z" stroke="#3F3D56" stroke-miterlimit="10"/>
<path d="M101.12 41.9388C103.689 41.9388 105.771 39.8564 105.771 37.2876C105.771 34.7189 103.689 32.6365 101.12 32.6365C98.5514 32.6365 96.469 34.7189 96.469 37.2876C96.469 39.8564 98.5514 41.9388 101.12 41.9388Z" stroke="#3F3D56" stroke-miterlimit="10"/>
<path d="M114.143 41.9388C116.712 41.9388 118.795 39.8564 118.795 37.2876C118.795 34.7189 116.712 32.6365 114.143 32.6365C111.575 32.6365 109.492 34.7189 109.492 37.2876C109.492 39.8564 111.575 41.9388 114.143 41.9388Z" stroke="#3F3D56" stroke-miterlimit="10"/>
<path d="M141.075 178.063C140.296 174.475 140.09 169.576 140.352 166.168C140.352 166.168 136.414 148.87 133.316 147.256L133.315 147.257C133.268 147.318 131.764 149.289 131.573 155.388C131.38 161.585 129.186 165.651 129.186 165.651C129.186 165.651 129.896 173.374 129.49 178.063L141.075 178.063Z" fill="#136162"/>
<path d="M169.718 67.9854H98.2587C97.2907 67.9853 96.3322 68.176 95.4379 68.5464C94.5436 68.9169 93.731 69.4598 93.0465 70.1443C92.362 70.8287 91.8191 71.6413 91.4487 72.5356C91.0782 73.4299 90.8876 74.3884 90.8876 75.3564V170.692C90.8876 171.66 91.0782 172.618 91.4487 173.513C91.8191 174.407 92.362 175.219 93.0465 175.904C93.731 176.588 94.5436 177.131 95.4379 177.502C96.3322 177.872 97.2907 178.063 98.2587 178.063H123.33C122.493 174.59 121.452 169.167 122.506 165.395L122.505 165.393L122.506 165.395C122.555 165.219 122.608 165.045 122.666 164.877C123.39 162.429 123.632 159.864 123.377 157.325C123.842 155.155 123.842 152.911 123.377 150.741C122.602 147.127 122.06 143.577 122.06 143.577C122.06 143.577 121.633 138.801 122.006 135.873C122.014 135.809 122.024 135.748 122.033 135.686C121.901 135.656 121.827 135.638 121.827 135.638C121.827 135.638 122.925 130.669 123.312 127.506C123.403 126.759 123.524 125.813 123.654 124.804C123.297 124.744 122.945 124.655 122.602 124.537C119.117 123.311 118.019 112.209 118.019 112.209V108.691C118.019 108.691 116.858 103.302 120.924 100.914C124.839 98.6141 126.403 97.9848 126.513 97.9413C126.543 97.9199 126.572 97.9006 126.603 97.877C127.045 97.5297 127.396 97.0788 127.623 96.5642C127.628 96.4756 127.629 96.3875 127.627 96.3C127.561 95.039 126.683 93.8922 125.85 92.8916C125.139 92.0381 124.429 91.1846 123.718 90.3312C123.475 90.0769 123.288 89.7742 123.17 89.4428C123.125 89.2599 123.105 89.0717 123.112 88.8835C123.111 88.8138 123.111 88.7443 123.113 88.6748C123.124 88.0384 123.142 87.4022 123.165 86.7661C123.185 86.2104 123.325 85.5092 123.869 85.395C124.152 85.3356 124.526 85.4392 124.676 85.1917C124.726 85.0897 124.739 84.9733 124.712 84.8628C124.71 84.8711 124.71 84.8797 124.708 84.8878C124.706 84.8774 124.704 84.867 124.702 84.8568C124.59 84.4112 124.523 83.9557 124.5 83.4967C124.494 83.2896 124.524 83.083 124.588 82.8859C124.903 81.9634 125.989 81.5848 126.948 81.4108C127.907 81.2367 128.984 81.087 129.586 80.3202C129.747 80.0656 129.922 79.8199 130.11 79.5842C130.386 79.3331 130.725 79.1619 131.092 79.089C132.282 78.7877 133.54 78.8993 134.659 79.4057C135.123 79.6174 135.589 79.9026 136.099 79.8703C136.627 79.8368 137.079 79.4647 137.601 79.3742C138.444 79.2279 139.25 79.8596 139.666 80.6077C139.929 81.0836 140.061 81.6213 140.048 82.1653C140.058 82.7068 139.862 83.2321 139.501 83.6354C139.138 84.0203 138.597 84.2848 138.446 84.7919C138.385 84.9983 138.399 85.2206 138.345 85.4289C138.338 85.455 138.327 85.4793 138.318 85.5045C138.328 85.5174 138.339 85.5296 138.348 85.5426C138.983 86.379 139.409 87.3551 139.589 88.3893C139.77 89.4236 139.701 90.4861 139.387 91.4881C139.073 92.4901 138.525 93.4026 137.787 94.1494C137.049 94.8962 136.143 95.4557 135.145 95.7811C135.142 95.8464 135.14 95.9118 135.14 95.9774C135.121 96.3843 135.19 96.7905 135.342 97.1684C135.494 97.5464 135.725 97.8873 136.021 98.1681L141.772 100.527C141.772 100.527 145.234 100.107 146.483 105.274C146.684 106.132 146.756 107.016 146.697 107.896C146.652 108.675 146.758 110.047 147.645 111.822C149.065 114.662 148.742 121.181 145.838 121.826C143.087 122.437 142.017 122.181 141.911 122.152L141.905 122.266C141.95 123.489 142.386 134.039 143.966 135.316C144.403 135.669 144.32 135.907 143.961 136.068L143.962 136.069C143.962 136.069 143.965 136.137 143.972 136.259C144.019 137.03 144.263 139.969 145.321 141.641C146.548 143.577 146.419 154.744 146.419 154.744L147.258 161.327C147.258 161.327 146.741 165.394 147.258 166.103C147.551 166.506 147.906 172.74 148.158 178.063H169.718C171.673 178.063 173.548 177.286 174.93 175.904C176.313 174.522 177.089 172.647 177.089 170.692V75.3564C177.089 74.3884 176.898 73.4299 176.528 72.5356C176.158 71.6413 175.615 70.8287 174.93 70.1443C174.246 69.4598 173.433 68.9169 172.539 68.5464C171.645 68.176 170.686 67.9853 169.718 67.9854Z" fill="#136162"/>
<path d="M162.276 59.6133H90.8169C86.7459 59.6133 83.4458 62.9134 83.4458 66.9843V162.32C83.4458 166.391 86.7459 169.691 90.8169 169.691H162.276C166.347 169.691 169.647 166.391 169.647 162.32V66.9843C169.647 62.9134 166.347 59.6133 162.276 59.6133Z" stroke="#3F3D56" stroke-miterlimit="10"/>
<path d="M31.7634 99.7301C31.7634 99.7301 28.8721 98.8753 28.252 99.8055C27.6318 100.736 29.0975 107.479 29.0975 107.479L35.4683 107.866L33.245 102.252L31.7634 99.7301Z" fill="#2F2E41"/>
<path d="M9.47494 155.107C9.47494 155.107 15.2717 167.833 10.8075 167.434C6.34334 167.034 4.61096 155.107 4.61096 155.107H9.47494Z" fill="#A0616A"/>
<path d="M47.3872 153.782C47.3872 153.782 44.8442 167.533 49.0788 166.064C53.3133 164.595 52.1065 152.604 52.1065 152.604L47.3872 153.782Z" fill="#A0616A"/>
<path d="M30.5299 96.5396C30.5299 96.5396 30.4633 102.936 32.9286 103.269C35.3939 103.602 31.5294 107 31.5294 107L27.1318 107.867L20.802 107.4L18.0035 103.802C18.0035 103.802 22.9341 101.47 20.802 94.2075L30.5299 96.5396Z" fill="#A0616A"/>
<path opacity="0.1" d="M30.5299 96.5396C30.5299 96.5396 30.4633 102.936 32.9286 103.269C35.3939 103.602 31.5294 107 31.5294 107L27.1318 107.867L20.802 107.4L18.0035 103.802C18.0035 103.802 22.9341 101.47 20.802 94.2075L30.5299 96.5396Z" fill="black"/>
<path d="M41.8571 150.643C41.8571 150.643 44.9887 157.372 42.5234 178.494C42.5234 178.494 43.2563 185.957 42.6566 187.356C42.057 188.755 37.1264 207.745 37.1264 207.745C37.1264 207.745 30.7965 209.144 29.9303 204.946C29.9303 204.946 30.7965 198.949 30.7299 198.017C30.6633 197.084 32.1291 186.889 32.1291 186.889L29.1308 167.167L26.8653 184.957C26.8653 184.957 26.8653 190.088 26.1324 191.22C25.3995 192.353 26.1324 215.14 26.1324 215.14C26.1324 215.14 28.1979 218.605 25.0663 218.672C21.9347 218.738 19.1363 218.605 18.8698 216.406C18.6032 214.208 18.47 212.009 17.8037 210.676C17.1374 209.344 16.2712 194.085 16.4711 188.755C16.671 183.425 12.0735 156.04 13.5394 153.175C15.0052 150.31 41.8571 150.643 41.8571 150.643Z" fill="#2F2E41"/>
<path d="M27.1318 98.9384C31.5477 98.9384 35.1274 95.3587 35.1274 90.9429C35.1274 86.527 31.5477 82.9473 27.1318 82.9473C22.716 82.9473 19.1362 86.527 19.1362 90.9429C19.1362 95.3587 22.716 98.9384 27.1318 98.9384Z" fill="#A0616A"/>
<path d="M19.1363 103.935C19.1363 103.935 24.0003 107.533 31.063 104.668C31.063 104.668 33.3951 103.536 33.1952 101.803C32.9953 100.071 38.0592 115.729 38.0592 115.729L43.1897 142.981L42.9231 154.108C42.9231 154.108 40.6577 152.975 33.595 155.507C26.5322 158.039 15.0052 152.642 15.0052 152.642L15.405 124.058L15.8048 107.4L16.8709 103.736C16.8709 103.736 17.4039 102.736 19.1363 103.935Z" fill="#F2F2F2"/>
<path d="M30.7522 99.4624C30.7522 99.4624 31.9292 99.2712 33.0619 101.07C34.1946 102.869 36.8598 104.002 36.8598 104.002C36.8598 104.002 43.3229 104.402 44.2557 107.866C45.1886 111.331 47.5206 116.062 48.6533 124.79C49.786 133.519 52.0514 147.445 52.3846 148.577C52.7177 149.71 51.9182 153.175 52.851 154.241C53.7838 155.307 46.2546 155.307 46.2546 155.307C46.2546 155.307 45.5883 149.843 45.1219 149.843C44.6555 149.843 44.7888 153.508 45.2552 156.173C45.7216 158.838 41.8571 156.173 41.8571 156.173C41.8571 156.173 38.8587 143.98 35.9936 132.986C33.1286 121.992 31.4628 115.929 31.9958 113.463C32.5289 110.998 33.9947 103.935 32.9287 103.269C31.8626 102.603 30.7522 99.4624 30.7522 99.4624Z" fill="#2F2E41"/>
<path d="M21.1436 99.4565C21.1436 99.4565 19.4028 100.404 15.0052 103.536C10.6076 106.667 7.60931 109.066 7.60931 109.066C7.60931 109.066 5.87693 110.398 4.81086 118.327C3.74479 126.256 1.3461 146.778 2.27893 149.377C3.21175 151.975 3.54489 153.508 3.21174 155.04C2.87859 156.573 10.2079 156.506 10.3411 156.173C10.4744 155.84 10.1412 149.777 10.4744 149.643C10.8075 149.51 12.6065 153.241 12.9397 156.373C13.2729 159.505 17.1374 161.97 18.0036 161.97C18.8698 161.97 23.334 143.913 23.4006 131.587C23.4672 119.26 21.9347 108.866 20.802 107.4C19.6693 105.934 21.1436 99.4565 21.1436 99.4565Z" fill="#2F2E41"/>
<path d="M32.862 208.344C32.862 208.344 33.395 206.878 35.2607 207.345C37.1263 207.811 38.3923 206.145 38.3923 206.145C38.3923 206.145 39.3917 206.012 38.7254 207.278C38.0591 208.544 37.5261 209.41 37.5261 209.41C37.5261 209.41 41.5239 218.539 38.9253 220.737C36.3268 222.936 33.3284 221.604 33.3284 221.604C33.3284 221.604 30.3967 219.538 30.53 214.074C30.53 214.074 30.3967 212.342 28.7976 209.544C27.1985 206.745 25.9991 202.481 27.9314 201.681C29.8637 200.882 30.361 200.852 30.361 200.852C30.361 200.852 29.4568 204.988 31.7924 206.433L32.862 208.344Z" fill="#3F3D56"/>
<path d="M20.4689 218.672C20.4689 218.672 18.8698 215.674 21.535 215.341C24.2002 215.008 27.0653 214.808 26.932 216.207C26.7987 217.606 26.4656 219.738 26.4656 219.738L26.932 221.271C26.932 221.271 27.0653 225.069 27.5317 225.535C27.9981 226.001 30.53 229.999 25.133 229.999C19.736 229.999 18.1369 229.4 18.6033 228.134C19.0697 226.868 19.2029 220.604 19.2029 220.604L20.4689 218.672Z" fill="#3F3D56"/>
<path d="M24.5999 84.5459C24.5999 84.5459 28.3312 85.5453 30.2635 85.9451C32.1958 86.3449 31.9959 85.2122 31.9959 85.2122C31.9959 85.2122 34.5278 85.5453 34.3945 85.2788C34.2613 85.0123 35.4606 83.6131 34.0614 82.014C32.6622 80.4148 33.0619 79.2155 33.0619 79.2155H31.8626L31.5294 78.7491H29.6638C29.6638 78.7491 28.2646 78.2161 24.5999 78.7491C20.9353 79.2822 15.9381 79.4154 15.5383 81.6142C15.1385 83.813 13.073 86.5448 13.8059 87.8108C14.5388 89.0767 18.7365 94.2738 19.1363 96.4726C19.5361 98.6714 21.4028 99.1599 21.3356 97.783C21.2684 96.406 19.4028 91.6087 21.0019 91.4088C22.601 91.2089 25.3329 87.1445 24.5999 84.5459Z" fill="#2F2E41"/>
<path d="M290.386 2.3125C289.064 2.38716 287.789 2.82854 286.704 3.58714C285.619 4.34574 284.767 5.39158 284.243 6.60738C282.707 10.3202 284.685 14.6814 287.653 17.3889C290.622 20.0963 294.436 21.6438 297.901 23.678C302.555 26.4101 306.737 30.2029 309.066 35.0714C311.395 39.9399 311.642 45.9707 308.905 50.6218C306.364 54.9388 301.745 57.5225 297.338 59.9054" stroke="#3F3D56" stroke-miterlimit="10"/>
<path d="M294.298 5.27132C297.295 5.27132 299.725 4.09129 299.725 2.63566C299.725 1.18002 297.295 0 294.298 0C291.302 0 288.872 1.18002 288.872 2.63566C288.872 4.09129 291.302 5.27132 294.298 5.27132Z" fill="#136162"/>
<path d="M298.64 22.6356C301.636 22.6356 304.066 21.4556 304.066 19.9999C304.066 18.5443 301.636 17.3643 298.64 17.3643C295.643 17.3643 293.213 18.5443 293.213 19.9999C293.213 21.4556 295.643 22.6356 298.64 22.6356Z" fill="#136162"/>
<path d="M288.717 25.4263C291.714 25.4263 294.143 24.2463 294.143 22.7907C294.143 21.3351 291.714 20.155 288.717 20.155C285.72 20.155 283.291 21.3351 283.291 22.7907C283.291 24.2463 285.72 25.4263 288.717 25.4263Z" fill="#136162"/>
<path d="M304.221 40.0001C307.218 40.0001 309.647 38.8201 309.647 37.3644C309.647 35.9088 307.218 34.7288 304.221 34.7288C301.224 34.7288 298.795 35.9088 298.795 37.3644C298.795 38.8201 301.224 40.0001 304.221 40.0001Z" fill="#136162"/>
<path d="M315.074 40.0001C318.071 40.0001 320.5 38.8201 320.5 37.3644C320.5 35.9088 318.071 34.7288 315.074 34.7288C312.077 34.7288 309.647 35.9088 309.647 37.3644C309.647 38.8201 312.077 40.0001 315.074 40.0001Z" fill="#136162"/>
</g>
<defs>
<clipPath id="clip0">
<rect width="320" height="230.001" fill="white" transform="translate(0.5)"/>
</clipPath>
</defs>
</svg>
