<svg width="40" height="40" viewBox="0 0 40 40" fill="none" xmlns="http://www.w3.org/2000/svg">
<circle cx="20" cy="20" r="18" fill="#6CB2B2"/>
<circle cx="20" cy="20" r="19" stroke="#052425" stroke-opacity="0.12" stroke-width="2"/>
<path d="M20 20C22.2091 20 24 18.2091 24 16C24 13.7909 22.2091 12 20 12C17.7909 12 16 13.7909 16 16C16 18.2091 17.7909 20 20 20Z" fill="white"/>
<path d="M26.39 22.56C24.71 21.7 22.53 21 20 21C17.47 21 15.29 21.7 13.61 22.56C12.61 23.07 12 24.1 12 25.22V28H28V25.22C28 24.1 27.39 23.07 26.39 22.56Z" fill="white"/>
</svg>
